# xmcd
#
# Track frame offsets:
#	150
#	18913
#	35583
#	51992
#	71005
#	86905
#	99949
#	114247
#	129562
#	145455
#	160867
#	174305
#	191936
#	207944
#
# Disc length: 2954 seconds
#
# Revision: 1
# Processed by: cddbd v1.5.2PL0 Copyright (c) Steve Scherf et al.
# Submitted via: EasyCDDAExtractor 7.0.3.1
#
DISCID=c60b880e
DTITLE=Various Artist - Hot Hits Country 2000 Vol 100
DYEAR=2000
DGENRE=Country
TTITLE0=Faith Hill and Tim McGraw - Let's Make Love
TTITLE1=SheDaisy - I Will...But
TTITLE2=Clint Black - Love She Can't Live Without
TTITLE3=Billy Gilman - One Voice
TTITLE4=Patty Loveless - That's the Kind of Mood I'm In
TTITLE5=Aaron Tippin - Kiss This
TTITLE6=Trisha Yearwood - Where Are You Now
TTITLE7=Ronnie Milsap - Time, Love and Money
TTITLE8=Craig Morgan - Paradise
TTITLE9=Georgia Middleman - No Place Like Home
TTITLE10=Anita Cochran - Good Times
TTITLE11=Phil Vassar - Just Another Day In Paradise
TTITLE12=The Kindleys - She Ain't the Girl For You
TTITLE13=Diamond Rio - Stuff
EXTD=
EXTT0=
EXTT1=
EXTT2=
EXTT3=
EXTT4=
EXTT5=
EXTT6=
EXTT7=
EXTT8=
EXTT9=
EXTT10=
EXTT11=
EXTT12=
EXTT13=
PLAYORDER=
